<svg id="Layer_1" data-name="Layer 1" xmlns="http://www.w3.org/2000/svg" viewBox="0 0 10 15"><defs><style>.cls-1{fill:#888;}</style></defs><title>icon-about</title><path class="cls-1" d="M3.7,10.21V9.47A2.3,2.3,0,0,1,4.14,8,5.69,5.69,0,0,1,5.5,6.84l0.7-.48a5.08,5.08,0,0,0,.5-0.45,1.83,1.83,0,0,0,.46-0.65,2.11,2.11,0,0,0,.12-0.76,1.65,1.65,0,0,0-.51-1.23,2.2,2.2,0,0,0-1.6-.5q-2.36,0-2.51,2.64L0.54,5.21A4.66,4.66,0,0,1,1.77,1.95,4.57,4.57,0,0,1,5.24.7a4.44,4.44,0,0,1,3,1A3.33,3.33,0,0,1,9.46,4.37,3.27,3.27,0,0,1,9,6.31,5.61,5.61,0,0,1,7.5,7.64l-0.41.28L6.7,8.17,6.39,8.4a1.49,1.49,0,0,0-.29.27l-0.19.27a0.93,0.93,0,0,0-.14.32,1.67,1.67,0,0,0,0,.36v0.59h-2ZM3.51,14.3V11.77H6.13V14.3H3.51Z"/></svg>