<svg id="Layer_1" data-name="Layer 1" xmlns="http://www.w3.org/2000/svg" viewBox="0 0 21 21"><defs><style>.cls-1{fill:#3a3a3a;}.cls-2{fill:#fff;}</style></defs><title>icon-glossary</title><circle class="cls-1" cx="10.5" cy="10.5" r="10.08"/><path class="cls-2" d="M9.73,12.34V11.72A1.5,1.5,0,0,1,10,10.8,4.07,4.07,0,0,1,10.92,10a6.94,6.94,0,0,0,1-.85,1.51,1.51,0,0,0,.37-1,1.36,1.36,0,0,0-.39-1,1.56,1.56,0,0,0-1.19-.41Q9.06,6.76,9,8.71L7.64,8.6a3.2,3.2,0,0,1,.83-2.2,3,3,0,0,1,2.3-.86,3.05,3.05,0,0,1,2.07.71A2.27,2.27,0,0,1,13.66,8a3.09,3.09,0,0,1-.1.82,1.68,1.68,0,0,1-.34.64,3.77,3.77,0,0,1-.42.44q-0.19.16-.57,0.44l-0.31.23-0.29.21L11.4,11a1.36,1.36,0,0,0-.19.18l-0.13.18a0.61,0.61,0,0,0-.09.22,1.32,1.32,0,0,0,0,.24v0.53H9.73ZM9.55,15.2V13.8h1.57V15.2H9.55Z"/></svg>